<svg aria-hidden="true" style="position: absolute; width: 0; height: 0; overflow: hidden;" version="1.1" xmlns="http://www.w3.org/2000/svg" xmlns:xlink="http://www.w3.org/1999/xlink">
<defs>
<symbol id="icon-bookmark-regular" viewBox="0 0 24 32">
<path d="M21 0h-18c-1.657 0-3 1.343-3 3v26.994c0 1.544 1.674 2.505 3.007 1.727l8.992-5.246 8.994 5.246c1.331 0.723 3.006-0.183 3.006-1.727v-26.994c0-1.657-1.344-3-3-3zM21 28.25l-9-5.25-9 5.25v-24.875c0-0.211 0.164-0.375 0.319-0.375h17.25c0.269 0 0.431 0.164 0.431 0.375v24.875z"></path>
</symbol>
<symbol id="icon-heart-regular" viewBox="0 0 32 32">
<path d="M15.25 5.25l0.694 0.75 0.75-0.749c2.094-2.041 4.994-2.969 7.844-2.495 4.306 0.718 7.462 4.444 7.462 8.813v0.363c0 2.594-1.075 5.075-2.975 6.844l-11.294 10.544c-0.469 0.438-1.087 0.681-1.731 0.681s-1.262-0.244-1.731-0.681l-11.294-10.544c-1.897-1.769-2.974-4.25-2.974-6.844v-0.363c0-4.369 3.158-8.095 7.463-8.813 2.794-0.474 5.75 0.454 7.787 2.494-0.056 0 0 0.001 0 0v0zM15.944 10.244l-2.813-2.925c-1.356-1.301-3.281-1.919-5.175-1.604-2.859 0.477-4.956 2.954-4.956 5.854v0.363c0 1.762 0.732 3.45 2.021 4.65l10.979 10.25 10.981-10.25c1.288-1.2 2.019-2.887 2.019-4.65v-0.363c0-2.9-2.1-5.377-4.956-5.854-1.894-0.315-3.819 0.303-5.175 1.604l-2.925 2.925z"></path>
</symbol>
<symbol id="icon-magnifying-glass-solid" viewBox="0 0 32 32">
<path d="M31.269 27.731l-7.481-7.481c1.701-2.526 2.541-5.681 2.091-9.044-0.766-5.719-5.454-10.374-11.179-11.099-8.512-1.077-15.669 6.080-14.592 14.592 0.725 5.728 5.38 10.419 11.1 11.181 3.362 0.449 6.519-0.39 9.044-2.091l7.481 7.481c0.976 0.976 2.559 0.976 3.536 0 0.975-0.977 0.975-2.565 0-3.54zM4.944 13c0-4.411 3.589-8 8-8s8 3.589 8 8c0 4.411-3.589 8-8 8s-8-3.587-8-8z"></path>
</symbol>
<symbol id="icon-arrow-right-solid" viewBox="0 0 28 32">
<path d="M27.413 17.413l-10 10c-0.387 0.394-0.9 0.587-1.413 0.587s-1.024-0.195-1.414-0.586c-0.781-0.781-0.781-2.047 0-2.828l6.589-6.586h-19.175c-1.104 0-2-0.894-2-2s0.896-2 2-2h19.175l-6.588-6.588c-0.781-0.781-0.781-2.047 0-2.828s2.047-0.781 2.828 0l10 10c0.778 0.784 0.778 2.047-0.003 2.828z"></path>
</symbol>
<symbol id="icon-arrow-left-solid" viewBox="0 0 28 32">
<path d="M27.944 16c0 1.106-0.837 2-1.944 2h-19.169l6.588 6.587c0.781 0.781 0.781 2.047 0 2.828-0.394 0.391-0.906 0.584-1.419 0.584s-1.024-0.195-1.414-0.586l-10-10c-0.781-0.781-0.781-2.047 0-2.828l10-10c0.781-0.781 2.047-0.781 2.828 0s0.781 2.047 0 2.828l-6.583 6.586h19.169c1.106 0 1.944 0.894 1.944 2z"></path>
</symbol>
<symbol id="icon-bookmark" viewBox="0 0 32 32">
<path d="M6 0v32l10-10 10 10v-32z"></path>
</symbol>
<symbol id="icon-heart" viewBox="0 0 32 32">
<path d="M23.6 2c-3.363 0-6.258 2.736-7.599 5.594-1.342-2.858-4.237-5.594-7.601-5.594-4.637 0-8.4 3.764-8.4 8.401 0 9.433 9.516 11.906 16.001 21.232 6.13-9.268 15.999-12.1 15.999-21.232 0-4.637-3.763-8.401-8.4-8.401z"></path>
</symbol>
</defs>
</svg>
